<?xml version="1.0" encoding="utf-8"?>
<!-- Generator: Adobe Illustrator 28.1.0, SVG Export Plug-In . SVG Version: 6.00 Build 0)  -->
<svg version="1.1" id="Layer_1" xmlns="http://www.w3.org/2000/svg" xmlns:xlink="http://www.w3.org/1999/xlink" x="0px" y="0px"
	 viewBox="0 0 97.4 70.2" style="enable-background:new 0 0 97.4 70.2;" xml:space="preserve">
<style type="text/css">
	.st0{fill:#231F20;}
</style>
<g>
	<g>
		<path class="st0" d="M59,64.3c-9.4,1.5-19.1,0.7-28.2-1.9C23,60.1,15.2,56.4,9.1,51c-2.3-2-4.5-4.5-5.8-7.3
			c-0.5-1.1-0.9-2.2-1-3.3c0-0.3,0-0.8,0-1.1c0.1-0.6,0.1-1,0.3-1.6c0.8-2.8,2.4-5.3,4.2-7.5c2.3-2.9,4.9-5.5,7.7-7.8
			c9.7-8,22-14.6,34.7-15.3c10.2-0.6,21,0.9,30,6c6.2,3.5,11.6,8.9,14.1,15.6c3.1,8.3-1.9,16.9-8.9,21.4C79.8,53.3,74.2,55,68.7,56
			c-6.6,1.3-13.4,1.6-20.1,1.1c-13-0.9-27.4-5.1-36-15.5c-2.1-2.5-4.1-5.5-4.5-8.9c-0.4-3.8,1.2-7.7,3.2-10.9
			C16.3,14,24.2,9.1,33,6.6C42.2,4,52.1,4.1,61.3,6.8c8.3,2.5,16.7,7.1,22.8,13.3c5.4,5.5,9.7,13.4,8.6,21.3
			c-1.1,8.4-7.4,14.4-14.9,17.7c-1.9,0.8-3.9,1.6-6,2c-1.2,0.3-1,4,0,3.7c6-1.2,11.9-4.3,16.1-8.7c6.9-7.2,8.1-18.2,4.6-27.3
			c-3-7.9-9-13.9-15.9-18.5C68.5,4.8,58.8,1.5,49,1c-9.8-0.5-20.7,1.9-28.9,7.6c-7.2,5-13.3,13-13.8,22.1C6,38.3,10.9,45,16.6,49.6
			c5.5,4.5,12.2,7.3,19,9.1c13.4,3.5,28.6,3.3,41.8-1.3c7-2.5,13.2-6.8,16.5-13.7c2-4.2,2.6-9,1.8-13.5c-0.8-4.3-2.9-8.4-5.6-11.8
			C82,7.9,68.5,3.8,55.6,3.3c-3.2-0.1-6.3-0.1-9.5,0.3c-8.1,1-15.9,4.5-22.8,8.6c-6.8,4.1-13.5,9.3-18.2,15.8
			c-3.7,5.1-5.8,11.3-3.3,17.4C4.5,52.2,11,57,17,60.4c8.2,4.6,17.6,7.3,27,8.2c5,0.4,10,0.3,15-0.5C60.2,67.8,60,64.1,59,64.3
			L59,64.3z"/>
	</g>
</g>
</svg>
