<svg width="28" height="29" fill="none" xmlns="http://www.w3.org/2000/svg"><path d="M20.14 16.65a.88.88 0 0 0-.28.87l1.48 6.4a.87.87 0 0 1-1.3.95l-5.59-3.39a.87.87 0 0 0-.9 0l-5.59 3.4a.88.88 0 0 1-1.3-.96l1.48-6.4a.88.88 0 0 0-.28-.87l-4.93-4.3a.88.88 0 0 1 .5-1.54l6.5-.56a.88.88 0 0 0 .73-.53l2.54-6.06a.87.87 0 0 1 1.6 0l2.54 6.06a.87.87 0 0 0 .73.53l6.5.56a.87.87 0 0 1 .5 1.54l-4.93 4.3Z" fill="#FFFA82"/><path d="M26.16 11.14a1.75 1.75 0 0 0-1.5-1.2l-6.5-.56-2.55-6.06a1.74 1.74 0 0 0-3.22 0L9.85 9.38l-6.5.56a1.75 1.75 0 0 0-1 3.07l4.94 4.31-1.48 6.4a1.75 1.75 0 0 0 2.6 1.9L14 22.23l5.6 3.4a1.75 1.75 0 0 0 2.6-1.9l-1.48-6.41L25.65 13a1.75 1.75 0 0 0 .51-1.87Zm-1.66.55-4.93 4.3a1.75 1.75 0 0 0-.56 1.72l1.48 6.41-5.58-3.39a1.74 1.74 0 0 0-1.81 0l-5.58 3.4 1.47-6.41A1.75 1.75 0 0 0 8.44 16L3.5 11.7v-.02l6.5-.56a1.75 1.75 0 0 0 1.46-1.06L14 4l2.54 6.05A1.75 1.75 0 0 0 18 11.12l6.5.56v.01Z" fill="#000"/></svg>