<svg xmlns="http://www.w3.org/2000/svg" width="20" height="26" fill="none"><path d="M6.2 20.66a6.59 6.59 0 0 1-3.46-3.39 7.28 7.28 0 0 1-.05-6.3c.36-.78.82-1.4 1.38-1.83.28-.22.34-.56.63-.77l1.09-.78c.23-.17.44-.2.7-.27.63-.18 1.1-.58 1.77-.69 1.03-.16 2.07-.17 3.12-.03 1.12.15 2.15.52 3.07 1.1.04.02.07.05.1.1l.15.27a.16.16 0 0 0 .12.08c.25.03.48.13.67.3a7.56 7.56 0 0 1 2.2 3.12c.14.38.23.8.26 1.28.03.5.05.98.05 1.43 0 .8-.26 1.7-.8 2.68-.5.9-.99 1.82-1.77 2.47a8.02 8.02 0 0 1-3.54 1.7c-.37.08-.74.3-1.2.34-1.52.12-3.01-.15-4.5-.81Zm11.4-5.28c.01 0 .02-.03.02-.08a.62.62 0 0 0-.05-.25.49.49 0 0 0-.03-.07.18.18 0 0 0-.04-.04l-.03-.01c-.02 0-.03.03-.03.08a.61.61 0 0 0 .05.25l.04.07.03.04.03.01Z" fill="#FECCED"/><path d="M8.5 14.83c.19-.06.35-.17.47-.32 2.07-2.53 4.11-4.97 6.13-7.31.17-.2.36-.39.55-.55.4-.35.91 0 1.24.26a.28.28 0 0 1 .08.35 40.79 40.79 0 0 1-1.98 3.19 68.4 68.4 0 0 1-5.37 6.83c-.27.3-.97.22-1.39.2a1.42 1.42 0 0 1-1.2-.68 401.9 401.9 0 0 0-2.3-3.67c-.2-.33-.42-.64-.64-.93A6.12 6.12 0 0 1 3 9.59c-.01-.08.02-.13.1-.14.56-.1 1.27-.1 1.64.37.57.72 1.21 1.44 1.64 2.23.21.38.57.62.82.99.4.58.78 1.16 1.16 1.74.03.05.08.07.13.05Z" fill="#000"/></svg>