<svg width="224" height="33" fill="none" xmlns="http://www.w3.org/2000/svg"><path d="M196.89 22.47c.07.03.1.04.11 0 1.46-7.45 2.9-14.83 4.31-22.15a.4.4 0 0 1 .46-.32l6.82 1.2.06.03.04.05.03.06-.01.07-9.25 29.96a.24.24 0 0 1-.2.16l-5.16.64c-.2.02-.33-.06-.38-.26L186.1 2.8c-.07-.24.02-.39.27-.44l6.2-1.25c.18-.03.28.04.3.2l3.98 21.12.01.03.03.02ZM68.21 25.14c-.18.25-.33.51-.44.79-1 2.32-2.03 4.65-3.09 6.98-.03.08-.1.1-.18.08l-5.91-2.25a.32.32 0 0 1-.2-.32c0-.05.01-.1.04-.13.1-.18.2-.37.28-.57 1.84-4.19 3.71-8.5 5.63-12.93a1 1 0 0 0 0-.8L58.5 2.6c-.08-.18-.03-.28.17-.32L65 1.08c.16-.03.28.03.35.19.84 1.98 1.73 4.02 2.67 6.1.04.1.1.17.18.23a.13.13 0 0 0 .2-.07c.23-.68.48-1.33.77-1.95.75-1.63 1.49-3.32 2.21-5.06a.13.13 0 0 1 .06-.07.13.13 0 0 1 .1-.01c2.02.57 4.12 1.07 6.27 1.52a.3.3 0 0 1 .24.29.3.3 0 0 1-.02.13 1285 1285 0 0 1-5.88 13.48c-.15.36-.15.72 0 1.08a2944.78 2944.78 0 0 0 6.02 13.74.16.16 0 0 1-.13.16L71.6 32.2a.26.26 0 0 1-.3-.16l-2.95-6.89c-.04-.08-.08-.09-.14-.01ZM157.26 17.05 156.9 2.4a.24.24 0 0 1 .23-.25l6.39-.33c.14 0 .21.06.2.2l-1 30.47a.19.19 0 0 1-.19.18l-4.4.03a.36.36 0 0 1-.33-.22l-7.03-16.3c-.1-.21-.17-.2-.2.03a6.9 6.9 0 0 0-.1 1.12c-.03 4.69-.1 9.15-.2 13.38a.17.17 0 0 1-.17.17l-4.58.27a.2.2 0 0 1-.21-.2l-1.15-29.33c0-.04.01-.07.03-.09a.13.13 0 0 1 .08-.05l5.32-1a.31.31 0 0 1 .34.18c1.19 2.78 2.42 5.63 3.7 8.55 1.16 2.6 2.21 5.3 3.47 7.88.11.22.16.2.16-.04ZM139.41 29.03a4.76 4.76 0 0 1-3.71 3.02 24 24 0 0 1-4.02.42c-2.4.06-4.7-.5-5.37-3.14a101.21 101.21 0 0 1-2.86-18.61c-.12-1.87 0-3.65.36-5.32a3.47 3.47 0 0 1 1.42-2.27c.79-.53 1.65-.95 2.6-1.25a23.66 23.66 0 0 1 8.25-1.22c.8.04 1.64.2 2.52.51a4.85 4.85 0 0 1 3.36 3.87c.32 1.64.5 3.61.52 5.92.06 6.27-.72 12.37-3.06 18.07Zm-2.69-19.67c-.36-1.1-1.6-1.94-2.8-2.02-1.52-.1-3.09.04-4.24 1.07-.62.54-.7 1.43-.69 2.2.02 1.57.12 3.2.3 4.87.28 2.62.66 5.3 1.15 8.05.17 1 .42 2.24 1.62 2.41 1.75.26 3.3-.14 3.78-2.05.7-2.69 1.08-5.42 1.16-8.17.04-1.43.03-2.82-.02-4.17a9.69 9.69 0 0 0-.26-2.19ZM181.5 1.34a4.9 4.9 0 0 1 3.03 3.96c.68 3.93.54 8.28.16 12.37a41.95 41.95 0 0 1-2.52 10.8c-.96 2.58-2.58 3.5-5.13 3.78-2.72.3-7.15.86-8.15-2.7-.42-1.51-.8-3.14-1.13-4.88a108.3 108.3 0 0 1-1.78-13.48c-.13-1.96-.13-4.5.52-6.42.5-1.5 1.97-2.2 3.33-2.7A24.5 24.5 0 0 1 177.4.63a9.4 9.4 0 0 1 4.1.7Zm-5.01 6.01c-1.49-.12-3 0-4.18.95-.38.3-.6.64-.67 1.02-.15.76-.19 1.67-.12 2.73.28 4.18.8 8.2 1.54 12.03.17.86.5 1.7 1.43 1.85 1.98.31 3.41-.18 3.92-2.26a44.22 44.22 0 0 0 1-13.2 3.17 3.17 0 0 0-2.92-3.12ZM29.7 24.9h9.13c.04 0 .07.02.1.05.02.03.04.06.04.1l.01 5.78a.17.17 0 0 1-.16.17l-14.62.94a.11.11 0 0 1-.11-.1c-.2-9.45-.42-19.08-.65-28.9-.01-.49 0-.96.06-1.4.01-.07.05-.11.13-.12l6.43-.7a.13.13 0 0 1 .15.13l-.7 23.86a.2.2 0 0 0 .04.14.19.19 0 0 0 .14.05ZM95.06 24.9l9.14.01c.04 0 .08.02.11.05.03.03.05.07.05.11v5.77c0 .04-.01.08-.04.11a.16.16 0 0 1-.1.05l-14.58.94a.16.16 0 0 1-.16-.1.16.16 0 0 1-.02-.06l-.64-30.2a.16.16 0 0 1 .14-.16l6.47-.7a.16.16 0 0 1 .16.1l.02.07-.71 23.84a.17.17 0 0 0 .05.12.16.16 0 0 0 .11.05ZM15.51 27.22a.37.37 0 0 0-.35-.26H7.4c-.13 0-.2.07-.23.2-.22 1.34-.5 2.73-.87 4.2-.1.35-.15.73-.18 1.12a.31.31 0 0 1-.37.28l-1.4-.28c-1.33-.27-2.64-.66-3.94-.85-.36-.06-.49-.26-.38-.6 2.81-9.4 5.56-18.48 8.23-27.28.23-.78.45-1.56.64-2.34a.27.27 0 0 1 .3-.2l3.13.4c.23.03.38.15.46.38l9.55 28.33a.35.35 0 0 1-.26.46l-4.96 1.03a.3.3 0 0 1-.35-.21l-1.27-4.38Zm-6.82-6.3a.1.1 0 0 0 .05.1.1.1 0 0 0 .05.02l4.76.2a.1.1 0 0 0 .1-.14l-2.72-8.38a.1.1 0 0 0-.16-.05.1.1 0 0 0-.03.06L8.69 20.9ZM208.84 27.1l-1.12 5.44c-.04.17-.14.24-.31.22-1.92-.32-3.76-.9-5.59-1.18a.18.18 0 0 1-.15-.18c0-.32.06-.65.16-.98l8.75-29.01a.29.29 0 0 1 .3-.2l3.03.36a.63.63 0 0 1 .52.42l9.55 28.36c.02.05.02.1.02.14 0 .05-.02.1-.04.13a.33.33 0 0 1-.22.16l-4.98 1.03a.3.3 0 0 1-.36-.22l-1.26-4.36a.38.38 0 0 0-.36-.27H209c-.1 0-.15.05-.17.14Zm1.49-6.2v.04c0 .02 0 .04.02.05a.1.1 0 0 0 .04.03l.05.02 4.7.2a.12.12 0 0 0 .13-.1v-.05l-2.69-8.34a.12.12 0 0 0-.23 0l-2.02 8.14ZM46.31 12.27l6.83.5a.15.15 0 0 1 .14.14v5.21a.15.15 0 0 1-.14.15l-6.8.2a.15.15 0 0 0-.15.15l-.01 5.8a.15.15 0 0 0 .14.15h9.43a.15.15 0 0 1 .13.1l.01.05-.13 5.25a.15.15 0 0 1-.13.15L41.1 31.15a.15.15 0 0 1-.14-.09.15.15 0 0 1-.01-.06l-.83-28.48a.15.15 0 0 1 .15-.15l15.87.62a.15.15 0 0 1 .14.16l-.38 5.16a.15.15 0 0 1-.14.14l-9.45.47a.15.15 0 0 0-.14.15v3.06a.15.15 0 0 0 .13.14ZM111.72 12.27l6.83.5c.03 0 .05 0 .06.03a.1.1 0 0 1 .03.06l.02 5.2a.22.22 0 0 1-.2.21l-6.62.2c-.17 0-.26.1-.26.27v5.68a.15.15 0 0 0 .15.15h9.43a.1.1 0 0 1 .07.03.11.11 0 0 1 .03.07l-.14 4.17c-.01.33 0 .63.04.92v.13a.33.33 0 0 1-.3.24l-14.33 1.01a.17.17 0 0 1-.13-.04.17.17 0 0 1-.04-.05.17.17 0 0 1-.01-.07l-.82-28.23c-.01-.26.11-.39.38-.38l15.66.63c.1 0 .13.05.13.14l-.4 5.14c-.01.1-.07.16-.17.17l-9.4.47c-.1 0-.15.06-.15.16v3.04c0 .1.04.15.14.15Z" fill="#000"/></svg>