<svg width="20" height="21" fill="none" xmlns="http://www.w3.org/2000/svg"><g clip-path="url(#a)"><path d="M11.5 3.25c0 .416.334.75.75.75h3.19L8.47 10.969a.75.75 0 0 0 1.06 1.06l6.968-6.97V8.25c0 .416.334.75.75.75s.75-.334.75-.75v-5a.748.748 0 0 0-.75-.75H12.25a.748.748 0 0 0-.75.75Zm-7.25.25A2.249 2.249 0 0 0 2 5.75v10.5a2.249 2.249 0 0 0 2.25 2.25h10.5A2.249 2.249 0 0 0 17 16.25v-4a.748.748 0 0 0-.75-.75.748.748 0 0 0-.75.75v4c0 .416-.334.75-.75.75H4.25a.748.748 0 0 1-.75-.75V5.75c0-.416.334-.75.75-.75h4c.416 0 .75-.334.75-.75a.748.748 0 0 0-.75-.75h-4Z" fill="#000"/></g><defs><clipPath id="a"><path fill="#fff" transform="translate(2 2.5)" d="M0 0h16v16H0z"/></clipPath></defs></svg>