<?xml version="1.0" encoding="utf-8"?>
<!-- Generator: Adobe Illustrator 28.1.0, SVG Export Plug-In . SVG Version: 6.00 Build 0)  -->
<svg version="1.1" id="Layer_1" xmlns="http://www.w3.org/2000/svg" xmlns:xlink="http://www.w3.org/1999/xlink" x="0px" y="0px"
	 viewBox="0 0 87.4 62.7" style="enable-background:new 0 0 87.4 62.7;" xml:space="preserve">
	 <style>
		path {
			stroke-dasharray: 1000;
  		stroke-dashoffset: 1000;
      stroke: #000000;
      fill:  transparent;
			animation: dashLine 4s linear;
      animation-fill-mode: forwards;
		}

		@keyframes dashLine {
        to {
            stroke-dashoffset: 0;
        }
    }
	 </style>
<g>
	<g>
		<path d="M5.7,10.7c13-3.2,26.7-4,39.9-1.9C51,9.6,56.2,11,61.3,12.9c5.3,1.9,10.5,4.3,15,7.7c4.2,3.1,7.3,7.1,7.9,12.5
			c0.6,5.6-3,10.6-6.9,14.3c-6.3,6.1-15.2,8.8-23.8,9.6c-9.2,0.9-18.7-0.3-27.5-3.2c-7.4-2.5-15.2-6.4-20-12.8
			c-2-2.6-3.3-5.6-3.4-8.7c-0.2-5.3,2.5-10.1,6.1-13.7c3-3,6.6-5.4,10.4-7.3C25.2,8,31.9,6,38.7,5.3c6.4-0.6,13-0.1,19.1,1.9
			C63.5,9,68.5,12,72.8,16c8.6,8,13,19.2,11.2,30.9c-0.5,3.2-1.4,6.4-2.6,9.4c-0.3,0.8-0.4,1.9,0,2.7c0.3,0.6,0.9,0.7,1.2,0
			c4.8-12.4,5-26.3-2-37.8C74,10.4,62.6,3.3,50.2,1.7C37.4,0,23.7,3.5,13.1,10.8c-4.1,2.8-7.7,6.4-9.9,10.9
			c-2.4,4.7-3,10.5-1.6,15.5c2.2,7.9,9.1,13.3,16.1,16.9c8.7,4.4,18.5,6.6,28.2,6.8c9.3,0.2,19.2-1.3,27.2-6.4
			c4.4-2.8,8.4-6.8,10.7-11.5c2.9-5.6,2.7-12.8-0.3-18.4c-2.5-4.7-6.9-8-11.4-10.6c-5.3-3-11-5.2-16.8-6.8C42.1,3.4,27.8,3,14.1,5.2
			C11.3,5.7,8.5,6.3,5.7,7C4.5,7.3,4.7,11,5.7,10.7L5.7,10.7z"/>
	</g>
</g>
</svg>
