<svg width="55" height="55" viewBox="0 0 55 55" fill="none" xmlns="http://www.w3.org/2000/svg">
<circle cx="27.5" cy="27.5" r="27.5" fill="white"/>
<path d="M36.815 19C33.071 19 29.3648 21.717 29.0245 25.6038C28.6841 29.7547 32.0121 32.8113 35.983 33C36.0587 33 36.0965 33 36.1721 33C36.2478 33 36.2856 33 36.3612 33C40.2565 32.8491 43.9627 29.9811 44.0005 25.8679C44.0005 21.9057 40.6347 19 36.815 19Z" fill="#C5EAFF"/>
<path d="M31.7036 17.2283C28.304 17.2283 24.9388 19.7007 24.6297 23.2376C24.3206 27.0149 27.3425 29.7964 30.9481 29.9681C31.0168 29.9681 31.0511 29.9681 31.1198 29.9681C31.1885 29.9681 31.2228 29.9681 31.2915 29.9681C34.8284 29.8307 38.1936 27.221 38.228 23.478C38.228 19.8724 35.1718 17.2283 31.7036 17.2283ZM31.7036 28.3198C29.4028 28.1481 27.5485 26.4998 27.1708 24.1991C26.7587 21.7267 28.3727 18.8422 31.1198 18.8765C36.614 18.8765 37.3008 27.8734 31.7036 28.3198Z" fill="black"/>
<path d="M42.4861 22.379C41.5933 12.9358 29.4372 10.0513 23.2562 16.4384C20.0626 19.7693 19.4789 24.5424 21.4705 28.5944C19.7536 30.3114 18.0366 32.0283 16.3197 33.7453C15.2552 34.8098 14.225 35.84 13.1605 36.9045C12.508 37.5569 11.9243 38.1064 12.199 38.9648C12.199 39.0678 12.2333 39.1709 12.3363 39.3082C12.4394 39.3426 12.508 39.4112 12.5424 39.4456C13.5039 40.4758 14.7744 42.2957 16.2167 42.3987C17.7276 42.5018 18.7578 41.1282 19.6849 40.1667C21.9856 37.866 24.252 35.5996 26.5527 33.2989C33.97 36.3551 43.2759 30.9638 42.4861 22.379ZM38.6401 28.6631C36.202 32.5778 31.3945 33.6423 27.4455 31.4446C26.8274 31.1012 25.9346 31.3415 25.4539 31.8223C23.9086 33.3676 22.3634 34.9128 20.7838 36.4924C19.7536 37.5226 18.7234 38.5528 17.6589 39.6173C17.3842 39.892 17.1095 40.201 16.8004 40.5101C16.148 39.9263 15.1178 38.6901 14.6714 38.2437C14.3623 37.7286 18.6547 34.02 19.2042 33.4706C20.7494 31.9253 22.2947 30.3801 23.8743 28.8005C24.1147 28.5601 24.149 28.2854 24.0116 27.9763C21.9856 24.302 22.5351 19.5289 25.6599 16.6444C29.0595 13.4852 34.3134 14.0003 37.4382 17.2625C40.2884 20.353 40.8721 25.0918 38.6401 28.6631Z" fill="black"/>
</svg>
