<svg width="55" height="55" viewBox="0 0 55 55" fill="none" xmlns="http://www.w3.org/2000/svg">
<circle cx="27.5" cy="27.5" r="27.5" fill="white"/>
<path d="M19.3149 19C23.0589 19 26.765 21.717 27.1054 25.6038C27.4458 29.7547 24.1178 32.8113 20.1469 33C20.0712 33 20.0334 33 19.9578 33C19.8821 33 19.8443 33 19.7687 33C15.8734 32.8491 12.1672 29.9811 12.1294 25.8679C12.1294 21.9057 15.4952 19 19.3149 19Z" fill="#C5EAFF"/>
<path d="M24.4263 17.2283C27.8259 17.2283 31.1911 19.7007 31.5002 23.2376C31.8092 27.0149 28.7874 29.7964 25.1818 29.9681C25.1131 29.9681 25.0788 29.9681 25.0101 29.9681C24.9414 29.9681 24.9071 29.9681 24.8384 29.9681C21.3015 29.8307 17.9362 27.221 17.9019 23.478C17.9019 19.8724 20.9581 17.2283 24.4263 17.2283ZM24.4263 28.3198C26.727 28.1481 28.5814 26.4998 28.9591 24.1991C29.3712 21.7267 27.7572 18.8422 25.0101 18.8765C19.5158 18.8765 18.8291 27.8734 24.4263 28.3198Z" fill="black"/>
<path d="M13.6438 22.379C14.5366 12.9358 26.6927 10.0513 32.8737 16.4384C36.0672 19.7693 36.651 24.5424 34.6593 28.5944C36.3763 30.3114 38.0933 32.0283 39.8102 33.7453C40.8747 34.8098 41.9049 35.84 42.9694 36.9045C43.6218 37.5569 44.2056 38.1064 43.9309 38.9648C43.9309 39.0678 43.8966 39.1709 43.7935 39.3082C43.6905 39.3426 43.6218 39.4112 43.5875 39.4456C42.626 40.4758 41.3555 42.2957 39.9132 42.3987C38.4023 42.5018 37.3721 41.1282 36.445 40.1667C34.1443 37.866 31.8779 35.5996 29.5772 33.2989C22.1599 36.3551 12.854 30.9638 13.6438 22.379ZM17.4898 28.6631C19.9279 32.5778 24.7353 33.6423 28.6843 31.4446C29.3024 31.1012 30.1953 31.3415 30.676 31.8223C32.2213 33.3676 33.7665 34.9128 35.3461 36.4924C36.3763 37.5226 37.4065 38.5528 38.471 39.6173C38.7457 39.892 39.0204 40.201 39.3295 40.5101C39.9819 39.9263 41.0121 38.6901 41.4585 38.2437C41.7675 37.7286 37.4751 34.02 36.9257 33.4706C35.3805 31.9253 33.8352 30.3801 32.2556 28.8005C32.0152 28.5601 31.9809 28.2854 32.1182 27.9763C34.1443 24.302 33.5948 19.5289 30.47 16.6444C27.0704 13.4852 21.8165 14.0003 18.6917 17.2625C15.8415 20.353 15.2577 25.0918 17.4898 28.6631Z" fill="black"/>
</svg>
