<svg width="60" height="60" viewBox="0 0 60 60" fill="none" xmlns="http://www.w3.org/2000/svg">
<g clip-path="url(#clip0_4859_853)">
<circle cx="30" cy="30" r="30" fill="#A592F2"/>
<mask id="mask0_4859_853" style="mask-type:alpha" maskUnits="userSpaceOnUse" x="0" y="0" width="60" height="60">
<circle cx="30" cy="30" r="30" fill="#A592F2"/>
</mask>
<g mask="url(#mask0_4859_853)">
<path d="M41.7278 48.6426C41.6612 48.5346 41.5553 48.4508 41.426 48.4038C41.2967 48.3568 41.151 48.3491 41.0107 48.3818L27.3285 51.5941C27.0934 51.6492 26.9807 51.7835 26.9904 51.9971C27.0838 54.128 27.0721 56.3861 26.9552 58.7713C26.9248 59.3557 26.9565 59.9539 27.0504 60.5659C27.061 60.635 27.0546 60.7062 27.0315 60.7747C27.0084 60.8432 26.9692 60.9075 26.9166 60.9631C26.864 61.0188 26.7991 61.0646 26.7264 61.0974C26.6537 61.1302 26.5748 61.1493 26.495 61.1534C25.6094 61.1992 24.746 61.2465 23.9046 61.2955C21.473 61.4407 19.0212 61.3803 16.6554 61.6275C15.9954 61.6959 15.6964 61.4396 15.7587 60.8585C17.3678 45.3414 18.9536 30.3005 20.5162 15.7358C20.6548 14.4488 20.7528 13.1673 20.8103 11.8913C20.8153 11.7856 20.8639 11.6827 20.947 11.6021C21.0301 11.5215 21.1419 11.4687 21.2613 11.4537L26.9367 10.7785C27.3561 10.7287 27.6715 10.8571 27.8829 11.1636L54.9174 50.5516C54.9632 50.6175 54.9919 50.6923 55.0016 50.7708C55.0113 50.8493 55.0017 50.9298 54.9736 51.0068C54.9454 51.0839 54.8993 51.1558 54.8383 51.2177C54.7773 51.2796 54.7028 51.3302 54.6199 51.3659L46.2346 54.9872C46.1079 55.0423 45.9652 55.0544 45.835 55.0212C45.7048 54.988 45.5966 54.9118 45.532 54.8079L41.7278 48.6426ZM27.4213 41.8118C27.4201 41.836 27.4249 41.8598 27.4355 41.8815C27.4461 41.9032 27.4623 41.9222 27.4827 41.9372C27.5031 41.9521 27.5274 41.9627 27.5537 41.9681C27.58 41.9734 27.6077 41.9734 27.6348 41.9682L36.1114 40.3043C36.1412 40.2987 36.1694 40.2869 36.1936 40.2698C36.2178 40.2527 36.2373 40.231 36.2503 40.2064C36.2634 40.1818 36.2696 40.1551 36.2684 40.1287C36.2672 40.1022 36.2588 40.0769 36.2437 40.0548L28.4437 28.3558C28.4245 28.3256 28.3941 28.3024 28.3574 28.2898C28.3206 28.2772 28.2794 28.2759 28.24 28.286C28.2007 28.2961 28.1655 28.3172 28.1396 28.3459C28.1138 28.3747 28.0989 28.4095 28.0971 28.4451L27.4213 41.8118Z" fill="white"/>
</g>
</g>
<defs>
<clipPath id="clip0_4859_853">
<rect width="60" height="60" fill="white"/>
</clipPath>
</defs>
</svg>
